<svg xmlns="http://www.w3.org/2000/svg" xmlns:xlink="http://www.w3.org/1999/xlink" width="184" height="70" viewBox="0 0 184 70"><defs><style>.a{fill:#fff;}.b{clip-path:url(#a);}</style><clipPath id="a"><rect class="a" width="184" height="70" rx="4" transform="translate(1125.337 891)"/></clipPath></defs><g class="b" transform="translate(-1125.337 -891)"><g transform="translate(1125 905)"><path class="a" d="M.281,24.518l2.325-.366V2.649L0,2.31.141,0H16.374l-.394,6.507-3.24-.085-.2-4.084H7.52v9.669H9.708l.507-2.226,2.275.056v6.677H10.243l-.536-2.281H7.52V24.49h5.052l.479-4.45,3.409.113.253,6.788H.17Z"/><path class="a" d="M11.731,24.132l.085-2,1.825-.366V8.208l-2.134-.2V5.983l5.338-.76.4,1.155v.76A6.413,6.413,0,0,1,22.064,5c2.9,0,5.043,1.747,5.043,5.24v11.53l1.936.366-.113,2h-6.3V11.208c0-1.859-.683-2.9-2.346-2.9a4.368,4.368,0,0,0-1.415.253,4.552,4.552,0,0,0-.761.874V21.766l1.915.366-.141,2Z" transform="translate(6.469 2.809)"/><path class="a" d="M76.928,24.132l.085-2,1.825-.366V8.208l-2.134-.2V5.983l5.338-.76.4,1.155v.76A6.413,6.413,0,0,1,87.26,5c2.9,0,5.043,1.747,5.043,5.24v11.53l1.936.366-.113,2h-6.3V11.208c0-1.859-.684-2.9-2.346-2.9a4.381,4.381,0,0,0-1.415.253,4.547,4.547,0,0,0-.76.874V21.766l1.915.366-.141,2Z" transform="translate(43.121 2.809)"/><path class="a" d="M32.87,24.968a10.1,10.1,0,0,1-3.775.647c-2.253,0-4.352-1.013-4.352-4.31V9.409L22.6,9.071l.085-2.366,2.423-.113,1.042-3.606,3.085-.142V6.7h3.353L32.359,9.07l-3.061.34V21.277a1.461,1.461,0,0,0,1.549,1.634h1.824Z" transform="translate(12.707 1.599)"/><path class="a" d="M110.027,24.061l.085-1.944,1.719-.394V8.138l-2.028-.2V5.912l5.513-.76.366,1.324V6.9a9.561,9.561,0,0,1,5.748-1.775l.817.7-.564,5.1-3.043-.113-.309-2.732a4.623,4.623,0,0,0-1.944.7V21.724l1.917.394-.141,1.944h-8.137Z" transform="translate(61.729 2.88)"/><path class="a" d="M59.2,24.061l.085-1.944L61,21.722V8.138l-2.029-.2V5.912l5.513-.76.366,1.324V6.9A9.561,9.561,0,0,1,70.6,5.124l.817.7-.564,5.1-3.043-.113L67.5,8.083a4.623,4.623,0,0,0-1.944.7V21.724l1.917.394-.141,1.944H59.2Z" transform="translate(33.152 2.88)"/><path class="a" d="M30.116,24.061l.085-1.944,1.719-.394V8.138l-2.029-.2V5.912l5.515-.76.366,1.324V6.9a9.557,9.557,0,0,1,5.747-1.775l.817.7-.564,5.1-3.043-.113-.31-2.732a4.623,4.623,0,0,0-1.944.7V21.724l1.916.394-.141,1.944H30.116Z" transform="translate(16.804 2.88)"/><path class="a" d="M42.935,15.887c0,3.239,1.4,5.747,4.208,5.747a8.916,8.916,0,0,0,3.944-.93l.761,1.775a9.424,9.424,0,0,1-5.925,1.943c-4.909,0-7.744-4.253-7.744-9.719,0-4.649,2.042-9.735,7.691-9.735,4.906,0,6.768,4.552,6.768,9.622L52.16,15.8Zm-.085-2.17,5.67-.253c-.113-2.255-.58-5.848-2.8-5.848a2.925,2.925,0,0,0-1.582.451A13.347,13.347,0,0,0,42.85,13.717Z" transform="translate(21.464 2.793)"/><path class="a" d="M93.081,15.887c0,3.239,1.4,5.747,4.208,5.747a8.912,8.912,0,0,0,3.944-.93l.76,1.775a9.421,9.421,0,0,1-5.925,1.943c-4.909,0-7.744-4.253-7.744-9.719,0-4.649,2.041-9.735,7.691-9.735,4.906,0,6.768,4.552,6.768,9.622l-.479,1.211ZM93,13.717l5.67-.253c-.113-2.255-.58-5.848-2.8-5.848a2.925,2.925,0,0,0-1.582.451A13.366,13.366,0,0,0,93,13.717Z" transform="translate(49.654 2.793)"/><path class="a" d="M72.014,15.887c0,3.239,1.4,5.747,4.208,5.747a8.912,8.912,0,0,0,3.944-.93l.76,1.775A9.422,9.422,0,0,1,75,24.422c-4.909,0-7.744-4.253-7.744-9.719,0-4.649,2.041-9.735,7.69-9.735,4.906,0,6.768,4.552,6.768,9.622L81.237,15.8Zm-.085-2.17,5.67-.253c-.113-2.255-.58-5.848-2.8-5.848a2.925,2.925,0,0,0-1.582.451A13.367,13.367,0,0,0,71.929,13.717Z" transform="translate(37.811 2.793)"/><path class="a" d="M110.219,24.114l-.479-1.606a5.805,5.805,0,0,1-4.338,1.887c-2.9,0-5.5-1.464-5.5-5.466V7.706l-2.134-.2V5.734l6.126-.7.479,1.606V18.367c0,2.057.829,3.127,2.493,3.127a4.246,4.246,0,0,0,1.606-.281,7.675,7.675,0,0,0,.845-1.042V7.706l-2.2-.2V5.734l6.19-.7.479,1.606V21.747l1.909.366-.225,2Z" transform="translate(54.963 2.827)"/><path class="a" d="M56.538,21.719a4.846,4.846,0,0,1-2.366-.507V9.3a8.293,8.293,0,0,1,.874-1.1,4.917,4.917,0,0,1,1.686-.281c2.533,0,2.952,2.566,2.952,7.159,0,4.423-.658,5.641-.834,6.138A5.012,5.012,0,0,1,56.538,21.719Zm7.556-7.476c0-5.688-1.69-9.263-5.882-9.263a5.614,5.614,0,0,0-4.659,2.288V6.648l-.479-1.606L47.566,5.8V7.745l2.134.281V31l-1.8.366-.085,1.917h8.134l.141-1.917L54.171,31V23.717a6.435,6.435,0,0,0,3.036.7C64.031,24.424,64.093,17.444,64.093,14.242Z" transform="translate(26.741 2.799)"/><path class="a" d="M117.575,15.558a1.334,1.334,0,1,1,0,2.642,1.334,1.334,0,1,1,0-2.642Zm0,2.228a.916.916,0,1,0-1.037-.909A.931.931,0,0,0,117.575,17.786Zm-.662-.312.008-.183.156-.034v-.813l-.179-.02.008-.183h.724c.312,0,.6.1.593.373a.386.386,0,0,1-.265.359,1.075,1.075,0,0,0,.265.3l.109.02-.016.183h-.366a1.331,1.331,0,0,1-.35-.454h-.117v.237l.155.034-.015.183h-.711Zm.568-1.009v.353h.133c.179,0,.219-.068.219-.17,0-.155-.117-.183-.265-.183Z" transform="translate(65.243 8.746)"/><path class="a" d="M95.45,30.019h-.96V20.585h.96Z" transform="translate(53.12 11.572)"/><path class="a" d="M103.612,28.621h.027V20.585h.96v9.434h-1.2L97.908,21.9h-.027v8.116h-.96V20.585h1.2Z" transform="translate(54.487 11.572)"/><path class="a" d="M103.651,20.585h3.131a5.609,5.609,0,0,1,1.765.293,4.866,4.866,0,0,1,1.6.886,4.639,4.639,0,0,1,0,7.076,4.869,4.869,0,0,1-1.6.887,5.572,5.572,0,0,1-1.765.293h-3.131Zm.96,8.582h1.906a4.753,4.753,0,0,0,1.858-.334,3.881,3.881,0,0,0,1.313-.873,3.541,3.541,0,0,0,.779-1.232,4.04,4.04,0,0,0,0-2.852,3.571,3.571,0,0,0-.779-1.233,3.892,3.892,0,0,0-1.313-.871,4.753,4.753,0,0,0-1.858-.334h-1.906Z" transform="translate(58.27 11.572)"/><path class="a" d="M111.282,30.019h-.96V20.585h.96Z" transform="translate(62.02 11.572)"/><path class="a" d="M113.09,30.019h-1.053l4.077-9.434h.932l4.052,9.434h-1.066l-1.04-2.479h-4.877Zm1.386-3.358h4.158l-2.078-5.009Z" transform="translate(62.984 11.572)"/></g></g></svg>